<?xml version="1.0" ?>
<svg xmlns="http://www.w3.org/2000/svg" xmlns:ev="http://www.w3.org/2001/xml-events" xmlns:xlink="http://www.w3.org/1999/xlink" baseProfile="full" height="259.85716117215867" version="1.1" viewBox="-1.0 -3.3660254037844384 5.232050807568877 6.732050807568877" width="201.95716117215866">
	<defs/>
	<path d="M 0.0,0.0 C 0.5330127018922193,-0.07679491924311233 0.6232050807568879,0.6794228634059947 0.5000000000000001,0.8660254037844386" fill="none" stroke="red" stroke-width="0.025906735751295335"/>
	<path d="M 0.5000000000000001,0.8660254037844386 C 0.6000000000000001,1.0660254037844386 1.3,1.3660254037844386 1.5,0.8660254037844386" fill="none" stroke="red" stroke-width="0.025906735751295335"/>
	<path d="M 1.5,0.8660254037844386 C 2.0,1.0660254037844386 1.7,1.7660254037844387 1.5,1.8660254037844386" fill="none" stroke="red" stroke-width="0.025906735751295335"/>
	<path d="M 1.5,1.8660254037844386 C 1.4866025403784437,2.0892304845413263 1.9428203230275507,2.699038105676658 2.3660254037844384,2.366025403784439" fill="none" stroke="red" stroke-width="0.025906735751295335"/>
	<path d="M 2.3660254037844384,2.366025403784439 C 2.0330127018922193,1.9428203230275511 2.642820323027551,1.4866025403784442 2.8660254037844384,1.5000000000000002" fill="none" stroke="red" stroke-width="0.025906735751295335"/>
	<path d="M 2.8660254037844384,1.5000000000000002 C 2.9892304845413262,1.3133974596215563 2.8990381056766577,0.5571796769724493 2.3660254037844384,0.6339745962155616" fill="none" stroke="red" stroke-width="0.025906735751295335"/>
	<path d="M 2.3660254037844384,0.6339745962155616 C 2.289230484541326,0.10096189432334235 3.045448267190433,0.010769515458673773 3.2320508075688767,0.13397459621556151" fill="none" stroke="red" stroke-width="0.025906735751295335"/>
	<path d="M 3.2320508075688767,0.13397459621556151 C 3.432050807568877,0.03397459621556151 3.7320508075688767,-0.6660254037844385 3.2320508075688767,-0.8660254037844385" fill="none" stroke="red" stroke-width="0.025906735751295335"/>
	<path d="M 3.2320508075688767,-0.8660254037844385 C 2.7320508075688767,-1.0660254037844386 3.0320508075688766,-1.7660254037844383 3.2320508075688767,-1.8660254037844384" fill="none" stroke="red" stroke-width="0.025906735751295335"/>
	<path d="M 3.2320508075688767,-1.8660254037844384 C 3.245448267190433,-2.089230484541326 2.789230484541326,-2.6990381056766575 2.3660254037844384,-2.3660254037844384" fill="none" stroke="red" stroke-width="0.025906735751295335"/>
	<path d="M 2.3660254037844384,-2.3660254037844384 C 2.6990381056766575,-1.9428203230275507 2.089230484541326,-1.4866025403784437 1.8660254037844384,-1.4999999999999998" fill="none" stroke="red" stroke-width="0.025906735751295335"/>
	<path d="M 1.8660254037844384,-1.4999999999999998 C 1.7660254037844383,-1.6999999999999997 1.0660254037844383,-1.9999999999999998 0.8660254037844384,-1.4999999999999998" fill="none" stroke="red" stroke-width="0.025906735751295335"/>
	<path d="M 0.8660254037844384,-1.4999999999999998 C 1.3660254037844384,-1.2999999999999998 1.0660254037844383,-0.5999999999999998 0.8660254037844384,-0.4999999999999998" fill="none" stroke="red" stroke-width="0.025906735751295335"/>
	<path d="M 0.8660254037844384,-0.4999999999999998 C 0.6794228634059946,-0.6232050807568874 -0.07679491924311221,-0.533012701892219 0.0,0.0" fill="none" stroke="red" stroke-width="0.025906735751295335"/>
	<circle cx="3.2320508075688767" cy="-1.8660254037844384" fill="#ff0000" r="0.07772020725388601"/>
	<circle cx="2.8660254037844384" cy="1.5000000000000002" fill="#ff0000" r="0.07772020725388601"/>
	<circle cx="1.5" cy="1.8660254037844386" fill="#ff0000" r="0.07772020725388601"/>
	<circle cx="0.5000000000000001" cy="0.8660254037844386" fill="#ff0000" r="0.07772020725388601"/>
</svg>
