<?xml version="1.0" ?>
<svg xmlns="http://www.w3.org/2000/svg" xmlns:ev="http://www.w3.org/2001/xml-events" xmlns:xlink="http://www.w3.org/1999/xlink" baseProfile="full" height="509.37148351647494" version="1.1" viewBox="-11.562177826491054 -4.232050807568854 14.29422863405993 13.196152422706604" width="551.7572252747133">
	<defs/>
	<path d="M -0.0,0.0 C -0.5330127018922193,-0.07679491924311233 -0.6232050807568879,0.6794228634059947 -0.5000000000000001,0.8660254037844386" fill="none" stroke="red" stroke-width="0.025906735751295335"/>
	<path d="M -0.5000000000000001,0.8660254037844386 C -0.6000000000000001,1.0660254037844386 -1.3,1.3660254037844386 -1.5,0.8660254037844386" fill="none" stroke="red" stroke-width="0.025906735751295335"/>
	<path d="M -1.5,0.8660254037844386 C -2.0,1.0660254037844386 -1.7,1.7660254037844387 -1.5,1.8660254037844386" fill="none" stroke="red" stroke-width="0.025906735751295335"/>
	<path d="M -1.5,1.8660254037844386 C -1.4866025403784437,2.0892304845413263 -1.9428203230275507,2.699038105676658 -2.3660254037844384,2.366025403784439" fill="none" stroke="red" stroke-width="0.025906735751295335"/>
	<path d="M -2.3660254037844384,2.366025403784439 C -2.0330127018922193,1.9428203230275511 -2.642820323027551,1.4866025403784442 -2.8660254037844384,1.5000000000000002" fill="none" stroke="red" stroke-width="0.025906735751295335"/>
	<path d="M -2.8660254037844384,1.5000000000000002 C -2.9892304845413262,1.3133974596215563 -2.8990381056766577,0.5571796769724493 -2.3660254037844384,0.6339745962155616" fill="none" stroke="red" stroke-width="0.025906735751295335"/>
	<path d="M -2.3660254037844384,0.6339745962155616 C -2.289230484541326,0.10096189432334235 -3.045448267190433,0.010769515458673773 -3.2320508075688767,0.13397459621556151" fill="none" stroke="red" stroke-width="0.025906735751295335"/>
	<path d="M -3.2320508075688767,0.13397459621556151 C -3.432050807568877,0.03397459621556151 -3.7320508075688767,-0.6660254037844385 -3.2320508075688767,-0.8660254037844385" fill="none" stroke="red" stroke-width="0.025906735751295335"/>
	<path d="M -3.2320508075688767,-0.8660254037844385 C -2.7320508075688767,-1.0660254037844386 -3.0320508075688766,-1.7660254037844383 -3.2320508075688767,-1.8660254037844384" fill="none" stroke="red" stroke-width="0.025906735751295335"/>
	<path d="M -3.2320508075688767,-1.8660254037844384 C -3.245448267190433,-2.089230484541326 -2.789230484541326,-2.6990381056766575 -2.3660254037844384,-2.3660254037844384" fill="none" stroke="red" stroke-width="0.025906735751295335"/>
	<path d="M -2.3660254037844384,-2.3660254037844384 C -2.6990381056766575,-1.9428203230275507 -2.089230484541326,-1.4866025403784437 -1.8660254037844384,-1.4999999999999998" fill="none" stroke="red" stroke-width="0.025906735751295335"/>
	<path d="M -1.8660254037844384,-1.4999999999999998 C -1.7660254037844383,-1.6999999999999997 -1.0660254037844383,-1.9999999999999998 -0.8660254037844384,-1.4999999999999998" fill="none" stroke="red" stroke-width="0.025906735751295335"/>
	<path d="M -0.8660254037844384,-1.4999999999999998 C -1.3660254037844384,-1.2999999999999998 -1.0660254037844383,-0.5999999999999998 -0.8660254037844384,-0.4999999999999998" fill="none" stroke="red" stroke-width="0.025906735751295335"/>
	<path d="M -0.8660254037844384,-0.4999999999999998 C -0.6794228634059946,-0.6232050807568874 0.07679491924311221,-0.533012701892219 -0.0,0.0" fill="none" stroke="red" stroke-width="0.025906735751295335"/>
	<path d="M -0.5000000000000002,0.8660254037844386 C -0.2767949192431125,0.8526279441628825 0.3330127018922191,1.3088457268119895 -2.220446049250313e-16,1.7320508075688772" fill="none" stroke="cyan" stroke-width="0.025906735751295335"/>
	<path d="M -2.220446049250313e-16,1.7320508075688772 C 0.42320508075688745,2.0650635094610963 0.8794228634059946,1.4552558883257647 0.8660254037844384,1.2320508075688772" fill="none" stroke="cyan" stroke-width="0.025906735751295335"/>
	<path d="M 0.8660254037844384,1.2320508075688772 C 1.0526279441628823,1.1088457268119891 1.808845726811989,1.1990381056766575 1.7320508075688767,1.7320508075688767" fill="none" stroke="cyan" stroke-width="0.025906735751295335"/>
	<path d="M 1.7320508075688767,1.7320508075688767 C 1.199038105676658,1.6552558883257644 1.1088457268119898,2.411473670974871 1.2320508075688772,2.598076211353315" fill="none" stroke="cyan" stroke-width="0.025906735751295335"/>
	<path d="M 1.2320508075688772,2.598076211353315 C 1.132050807568877,2.7980762113533153 0.43205080756887737,3.098076211353315 0.2320508075688772,2.598076211353315" fill="none" stroke="cyan" stroke-width="0.025906735751295335"/>
	<path d="M 0.2320508075688772,2.598076211353315 C -0.2679491924311226,2.7980762113533153 0.032050807568877016,3.4980762113533146 0.2320508075688772,3.598076211353315" fill="none" stroke="cyan" stroke-width="0.025906735751295335"/>
	<path d="M 0.2320508075688772,3.598076211353315 C 0.24544826719043344,3.8212812921102026 -0.21076951545867373,4.431088913245534 -0.6339745962155613,4.098076211353315" fill="none" stroke="cyan" stroke-width="0.025906735751295335"/>
	<path d="M -0.6339745962155613,4.098076211353315 C -1.057179676972449,3.765063509461096 -1.5133974596215558,4.374871130596427 -1.4999999999999998,4.598076211353315" fill="none" stroke="cyan" stroke-width="0.025906735751295335"/>
	<path d="M -1.4999999999999998,4.598076211353315 C -1.6866025403784433,4.721281292110202 -2.4428203230275503,4.631088913245534 -2.3660254037844384,4.098076211353315" fill="none" stroke="cyan" stroke-width="0.025906735751295335"/>
	<path d="M -2.3660254037844384,4.098076211353315 C -1.833012701892219,4.1748711305964274 -1.7428203230275507,3.41865334794732 -1.8660254037844384,3.2320508075688767" fill="none" stroke="cyan" stroke-width="0.025906735751295335"/>
	<path d="M -1.8660254037844384,3.2320508075688767 C -2.089230484541326,3.245448267190432 -2.6990381056766575,2.789230484541326 -2.3660254037844384,2.3660254037844384" fill="none" stroke="cyan" stroke-width="0.025906735751295335"/>
	<path d="M -1.4999999999999998,4.598076211353315 C -1.2999999999999998,4.698076211353316 -1.0,5.398076211353315 -1.4999999999999996,5.598076211353314" fill="none" stroke="cyan" stroke-width="0.025906735751295335"/>
	<path d="M -1.4999999999999996,5.598076211353314 C -1.6999999999999995,5.098076211353315 -2.3999999999999995,5.398076211353315 -2.4999999999999996,5.598076211353314" fill="none" stroke="cyan" stroke-width="0.025906735751295335"/>
	<path d="M -2.4999999999999996,5.598076211353314 C -2.7232050807568875,5.6114736709748705 -3.3330127018922187,5.1552558883257635 -2.999999999999999,4.732050807568877" fill="none" stroke="cyan" stroke-width="0.025906735751295335"/>
	<path d="M -2.999999999999999,4.732050807568877 C -3.423205080756887,4.399038105676658 -3.879422863405994,5.008845726811988 -3.866025403784438,5.232050807568876" fill="none" stroke="cyan" stroke-width="0.025906735751295335"/>
	<path d="M -3.866025403784438,5.232050807568876 C -4.052627944162882,5.355255888325764 -4.808845726811989,5.265063509461095 -4.732050807568877,4.732050807568876" fill="none" stroke="cyan" stroke-width="0.025906735751295335"/>
	<path d="M -4.732050807568877,4.732050807568876 C -4.655255888325764,4.199038105676657 -5.411473670974871,4.108845726811988 -5.598076211353315,4.232050807568876" fill="none" stroke="cyan" stroke-width="0.025906735751295335"/>
	<path d="M -5.598076211353315,4.232050807568876 C -5.798076211353315,4.132050807568876 -6.098076211353315,3.4320508075688765 -5.598076211353315,3.2320508075688763" fill="none" stroke="cyan" stroke-width="0.025906735751295335"/>
	<path d="M -5.598076211353315,3.2320508075688763 C -5.398076211353315,3.7320508075688763 -4.698076211353316,3.432050807568876 -4.598076211353315,3.2320508075688763" fill="none" stroke="cyan" stroke-width="0.025906735751295335"/>
	<path d="M -4.598076211353315,3.2320508075688763 C -4.721281292110203,3.0454482671904324 -4.631088913245534,2.2892304845413256 -4.098076211353315,2.3660254037844375" fill="none" stroke="cyan" stroke-width="0.025906735751295335"/>
	<path d="M -4.098076211353315,2.3660254037844375 C -4.1748711305964274,2.8990381056766568 -3.4186533479473207,2.9892304845413253 -3.2320508075688767,2.8660254037844375" fill="none" stroke="cyan" stroke-width="0.025906735751295335"/>
	<path d="M -3.2320508075688767,2.8660254037844375 C -3.245448267190433,2.64282032302755 -2.789230484541326,2.033012701892219 -2.3660254037844384,2.366025403784438" fill="none" stroke="cyan" stroke-width="0.025906735751295335"/>
	<path d="M -2.4999999999999996,5.598076211353314 C -2.376794919243112,5.784678751731757 -2.46698729810778,6.540896534380864 -2.9999999999999987,6.464101615137752" fill="none" stroke="cyan" stroke-width="0.025906735751295335"/>
	<path d="M -2.9999999999999987,6.464101615137752 C -3.0767949192431105,6.99711431702997 -2.3205771365940047,7.087306695894639 -2.133974596215561,6.964101615137752" fill="none" stroke="cyan" stroke-width="0.025906735751295335"/>
	<path d="M -2.133974596215561,6.964101615137752 C -1.933974596215561,7.0641016151377505 -1.6339745962155612,7.76410161513775 -2.1339745962155607,7.96410161513775" fill="none" stroke="cyan" stroke-width="0.025906735751295335"/>
	<path d="M -2.1339745962155607,7.96410161513775 C -2.33397459621556,7.46410161513775 -3.0339745962155593,7.764101615137751 -3.133974596215559,7.96410161513775" fill="none" stroke="cyan" stroke-width="0.025906735751295335"/>
	<path d="M -3.133974596215559,7.96410161513775 C -3.3571796769724465,7.977499074759306 -3.9669872981077776,7.521281292110199 -3.633974596215559,7.0980762113533125" fill="none" stroke="cyan" stroke-width="0.025906735751295335"/>
	<path d="M -3.633974596215559,7.0980762113533125 C -4.057179676972446,6.765063509461093 -4.513397459621553,7.374871130596425 -4.4999999999999964,7.5980762113533125" fill="none" stroke="cyan" stroke-width="0.025906735751295335"/>
	<path d="M -4.4999999999999964,7.5980762113533125 C -4.6866025403784395,7.721281292110199 -5.442820323027545,7.631088913245531 -5.366025403784434,7.0980762113533125" fill="none" stroke="cyan" stroke-width="0.025906735751295335"/>
	<path d="M -5.366025403784434,7.0980762113533125 C -5.2892304845413225,6.565063509461094 -6.0454482671904275,6.474871130596426 -6.232050807568871,6.598076211353313" fill="none" stroke="cyan" stroke-width="0.025906735751295335"/>
	<path d="M -6.232050807568871,6.598076211353313 C -6.432050807568871,6.498076211353315 -6.732050807568871,5.798076211353315 -6.232050807568871,5.598076211353315" fill="none" stroke="cyan" stroke-width="0.025906735751295335"/>
	<path d="M -6.232050807568871,5.598076211353315 C -6.032050807568872,6.098076211353314 -5.332050807568873,5.798076211353314 -5.232050807568873,5.598076211353314" fill="none" stroke="cyan" stroke-width="0.025906735751295335"/>
	<path d="M -5.232050807568873,5.598076211353314 C -5.355255888325761,5.411473670974871 -5.2650635094610925,4.655255888325765 -4.732050807568874,4.732050807568877" fill="none" stroke="cyan" stroke-width="0.025906735751295335"/>
	<path d="M -6.232050807568871,6.598076211353314 C -6.218653347947315,6.821281292110202 -6.674871130596421,7.431088913245532 -7.098076211353309,7.098076211353313" fill="none" stroke="cyan" stroke-width="0.025906735751295335"/>
	<path d="M -7.098076211353309,7.098076211353313 C -6.76506350946109,6.674871130596426 -7.37487113059642,6.2186533479473205 -7.598076211353307,6.232050807568876" fill="none" stroke="cyan" stroke-width="0.025906735751295335"/>
	<path d="M -7.598076211353307,6.232050807568876 C -7.721281292110195,6.045448267190432 -7.631088913245526,5.289230484541327 -7.098076211353309,5.366025403784439" fill="none" stroke="cyan" stroke-width="0.025906735751295335"/>
	<path d="M -7.098076211353309,5.366025403784439 C -7.021281292110196,4.833012701892221 -7.777499074759302,4.742820323027552 -7.964101615137745,4.86602540378444" fill="none" stroke="cyan" stroke-width="0.025906735751295335"/>
	<path d="M -7.964101615137745,4.86602540378444 C -8.164101615137746,4.76602540378444 -8.464101615137745,4.066025403784441 -7.964101615137745,3.8660254037844415" fill="none" stroke="cyan" stroke-width="0.025906735751295335"/>
	<path d="M -7.964101615137745,3.8660254037844415 C -7.464101615137746,3.6660254037844417 -7.764101615137745,2.9660254037844433 -7.964101615137745,2.8660254037844437" fill="none" stroke="cyan" stroke-width="0.025906735751295335"/>
	<path d="M -7.964101615137745,2.8660254037844437 C -7.977499074759301,2.642820323027556 -7.521281292110196,2.033012701892226 -7.098076211353309,2.366025403784444" fill="none" stroke="cyan" stroke-width="0.025906735751295335"/>
	<path d="M -7.098076211353309,2.366025403784444 C -7.431088913245526,2.7892304845413314 -6.821281292110196,3.2454482671904374 -6.598076211353309,3.232050807568881" fill="none" stroke="cyan" stroke-width="0.025906735751295335"/>
	<path d="M -6.598076211353309,3.232050807568881 C -6.498076211353309,3.032050807568882 -5.79807621135331,2.732050807568882 -5.598076211353311,3.232050807568881" fill="none" stroke="cyan" stroke-width="0.025906735751295335"/>
	<path d="M -7.964101615137745,2.8660254037844437 C -8.150704155516188,2.989230484541331 -8.906921938165294,2.899038105676664 -8.830127018922182,2.366025403784446" fill="none" stroke="cyan" stroke-width="0.025906735751295335"/>
	<path d="M -8.830127018922182,2.366025403784446 C -8.297114317029964,2.4428203230275574 -8.206921938165298,1.6866025403784524 -8.330127018922184,1.5000000000000093" fill="none" stroke="cyan" stroke-width="0.025906735751295335"/>
	<path d="M -8.330127018922184,1.5000000000000093 C -8.230127018922184,1.3000000000000096 -7.530127018922187,1.0000000000000098 -7.330127018922187,1.5000000000000082" fill="none" stroke="cyan" stroke-width="0.025906735751295335"/>
	<path d="M -7.330127018922187,1.5000000000000082 C -6.830127018922188,1.3000000000000085 -7.130127018922188,0.6000000000000107 -7.330127018922187,0.5000000000000115" fill="none" stroke="cyan" stroke-width="0.025906735751295335"/>
	<path d="M -7.330127018922187,0.5000000000000115 C -7.343524478543744,0.2767949192431236 -6.8873066958946385,-0.3330127018922062 -6.464101615137752,1.199040866595169e-14" fill="none" stroke="cyan" stroke-width="0.025906735751295335"/>
	<path d="M -6.464101615137752,1.199040866595169e-14 C -6.040896534380865,0.33301270189222976 -5.58467875173176,-0.2767949192431005 -5.598076211353317,-0.49999999999998757" fill="none" stroke="cyan" stroke-width="0.025906735751295335"/>
	<path d="M -5.598076211353317,-0.49999999999998757 C -5.411473670974874,-0.6232050807568754 -4.655255888325769,-0.5330127018922086 -4.732050807568879,9.769962616701378e-15" fill="none" stroke="cyan" stroke-width="0.025906735751295335"/>
	<path d="M -4.732050807568879,9.769962616701378e-15 C -5.265063509461098,-0.07679491924310167 -5.355255888325765,0.6794228634060033 -5.232050807568878,0.8660254037844464" fill="none" stroke="cyan" stroke-width="0.025906735751295335"/>
	<path d="M -5.232050807568878,0.8660254037844464 C -5.00884572681199,0.8526279441628901 -4.399038105676659,1.3088457268119953 -4.732050807568878,1.732050807568882" fill="none" stroke="cyan" stroke-width="0.025906735751295335"/>
	<path d="M -4.732050807568878,1.732050807568882 C -5.155255888325764,1.3990381056766643 -5.61147367097487,2.0088457268119946 -5.598076211353313,2.2320508075688816" fill="none" stroke="cyan" stroke-width="0.025906735751295335"/>
	<path d="M -5.598076211353313,2.2320508075688816 C -5.398076211353314,2.332050807568881 -5.098076211353314,3.032050807568879 -5.5980762113533125,3.2320508075688785" fill="none" stroke="cyan" stroke-width="0.025906735751295335"/>
	<path d="M -8.330127018922184,1.5000000000000093 C -8.553332099679071,1.5133974596215656 -9.163139720814401,1.057179676972461 -8.830127018922184,0.6339745962155745" fill="none" stroke="cyan" stroke-width="0.025906735751295335"/>
	<path d="M -8.830127018922184,0.6339745962155745 C -9.25333209967907,0.30096189432335696 -9.709549882328174,0.9107695154586871 -9.696152422706618,1.1339745962155736" fill="none" stroke="cyan" stroke-width="0.025906735751295335"/>
	<path d="M -9.696152422706618,1.1339745962155736 C -9.88275496308506,1.2571796769724612 -10.638972745734165,1.1669872981077942 -10.562177826491054,0.6339745962155767" fill="none" stroke="cyan" stroke-width="0.025906735751295335"/>
	<path d="M -10.562177826491054,0.6339745962155767 C -10.029165124598837,0.710769515458688 -9.93897274573417,-0.04544826719041617 -10.062177826491057,-0.2320508075688592" fill="none" stroke="cyan" stroke-width="0.025906735751295335"/>
	<path d="M -10.062177826491057,-0.2320508075688592 C -9.962177826491057,-0.43205080756885894 -9.262177826491062,-0.7320508075688583 -9.06217782649106,-0.23205080756886054" fill="none" stroke="cyan" stroke-width="0.025906735751295335"/>
	<path d="M -9.06217782649106,-0.23205080756886054 C -8.562177826491062,-0.43205080756886005 -8.862177826491063,-1.1320508075688573 -9.062177826491062,-1.2320508075688565" fill="none" stroke="cyan" stroke-width="0.025906735751295335"/>
	<path d="M -9.062177826491062,-1.2320508075688565 C -9.075575286112619,-1.455255888325744 -8.619357503463513,-2.0650635094610736 -8.196152422706627,-1.732050807568856" fill="none" stroke="cyan" stroke-width="0.025906735751295335"/>
	<path d="M -8.196152422706627,-1.732050807568856 C -7.77294734194974,-1.3990381056766383 -7.316729559300636,-2.008845726811968 -7.330127018922192,-2.2320508075688554" fill="none" stroke="cyan" stroke-width="0.025906735751295335"/>
	<path d="M -7.330127018922192,-2.2320508075688554 C -7.143524478543749,-2.3552558883257424 -6.387306695894645,-2.2650635094610756 -6.464101615137755,-1.7320508075688583" fill="none" stroke="cyan" stroke-width="0.025906735751295335"/>
	<path d="M -6.464101615137755,-1.7320508075688583 C -6.997114317029974,-1.8088457268119693 -7.0873066958946405,-1.0526279441628652 -6.9641016151377535,-0.8660254037844222" fill="none" stroke="cyan" stroke-width="0.025906735751295335"/>
	<path d="M -6.9641016151377535,-0.8660254037844222 C -6.740896534380866,-0.8794228634059784 -6.131088913245536,-0.4232050807568737 -6.4641016151377535,1.2878587085651816e-14" fill="none" stroke="cyan" stroke-width="0.025906735751295335"/>
	<path d="M -7.330127018922192,-2.2320508075688554 C -7.530127018922191,-2.332050807568855 -7.830127018922191,-3.0320508075688517 -7.330127018922194,-3.232050807568852" fill="none" stroke="cyan" stroke-width="0.025906735751295335"/>
	<path d="M -7.330127018922194,-3.232050807568852 C -7.1301270189221935,-2.732050807568854 -6.430127018922196,-3.0320508075688544 -6.330127018922196,-3.2320508075688537" fill="none" stroke="cyan" stroke-width="0.025906735751295335"/>
	<path d="M -6.330127018922196,-3.2320508075688537 C -6.10692193816531,-3.2454482671904104 -5.49711431702998,-2.789230484541305 -5.830127018922197,-2.3660254037844184" fill="none" stroke="cyan" stroke-width="0.025906735751295335"/>
	<path d="M -5.830127018922197,-2.3660254037844184 C -5.40692193816531,-2.033012701892201 -4.950704155516206,-2.642820323027531 -4.964101615137762,-2.866025403784418" fill="none" stroke="cyan" stroke-width="0.025906735751295335"/>
	<path d="M -4.964101615137762,-2.866025403784418 C -4.777499074759319,-2.9892304845413054 -4.021281292110214,-2.8990381056766386 -4.098076211353325,-2.3660254037844206" fill="none" stroke="cyan" stroke-width="0.025906735751295335"/>
	<path d="M -4.098076211353325,-2.3660254037844206 C -4.174871130596436,-1.8330127018922031 -3.418653347947332,-1.7428203230275359 -3.232050807568889,-1.8660254037844237" fill="none" stroke="cyan" stroke-width="0.025906735751295335"/>
	<path d="M -3.2320508075688874,-0.866025403784427 C -3.4320508075688876,-1.366025403784425 -4.132050807568884,-1.0660254037844248 -4.232050807568884,-0.8660254037844257" fill="none" stroke="cyan" stroke-width="0.025906735751295335"/>
	<path d="M -4.232050807568884,-0.8660254037844257 C -4.108845726811997,-0.6794228634059825 -4.199038105676664,0.0767949192431222 -4.732050807568881,1.0880185641326534e-14" fill="none" stroke="cyan" stroke-width="0.025906735751295335"/>
	<circle cx="0.8660254037844384" cy="1.2320508075688772" fill="#ff0000" r="0.07772020725388601"/>
	<circle cx="-7.598076211353307" cy="6.232050807568876" fill="#ff0000" r="0.07772020725388601"/>
	<circle cx="-9.696152422706618" cy="1.1339745962155736" fill="#ff0000" r="0.07772020725388601"/>
	<circle cx="-6.330127018922196" cy="-3.2320508075688537" fill="#ff0000" r="0.07772020725388601"/>
</svg>
